<?xml version="1.0" encoding="utf-8"?><svg viewBox="0 0 16 16" xmlns="http://www.w3.org/2000/svg" xmlns:xlink="http://www.w3.org/1999/xlink"><style>:root>svg{display:none}:root>svg:target{display:block}</style><svg viewBox="0 0 16 16" id="about" xmlns="http://www.w3.org/2000/svg"><path d="M4.356 6.311L3.11 7.556l4 4L16 2.666l-1.244-1.244L7.11 9.067 4.356 6.31zm9.866 7.911H1.778V1.778h8.889V0h-8.89C.8 0 0 .8 0 1.778v12.444C0 15.2.8 16 1.778 16h12.444C15.2 16 16 15.2 16 14.222v-7.11h-1.778v7.11z"/><defs><linearGradient id="apaint0_linear_21_12652" x1="0" y1="8" x2="16" y2="8" gradientUnits="userSpaceOnUse"><stop stop-color="#0CBAF1"/><stop offset="1" stop-color="#E95CE9"/></linearGradient></defs></svg><svg viewBox="0 0 13 12" id="accordion" xmlns="http://www.w3.org/2000/svg"><path d="M6.017 7.688l-3-3 .537-.538 2.463 2.475 2.462-2.462.538.537-3 2.988z"/></svg><svg viewBox="0 0 12 12" id="menu-more" xmlns="http://www.w3.org/2000/svg"><path d="M6 7.688l-3-3 .538-.538L6 6.625l2.463-2.462L9 4.7 6 7.688z"/></svg></svg>