<?xml version="1.0" encoding="utf-8"?><svg viewBox="0 0 24 24" xmlns="http://www.w3.org/2000/svg" xmlns:xlink="http://www.w3.org/1999/xlink"><style>:root>svg{display:none}:root>svg:target{display:block}</style><svg viewBox="0 0 16 16" id="about" xmlns="http://www.w3.org/2000/svg"><path d="M4.356 6.311L3.11 7.556l4 4L16 2.666l-1.244-1.244L7.11 9.067 4.356 6.31zm9.866 7.911H1.778V1.778h8.889V0h-8.89C.8 0 0 .8 0 1.778v12.444C0 15.2.8 16 1.778 16h12.444C15.2 16 16 15.2 16 14.222v-7.11h-1.778v7.11z"/><defs><linearGradient id="apaint0_linear_21_12652" x1="0" y1="8" x2="16" y2="8" gradientUnits="userSpaceOnUse"><stop stop-color="#0CBAF1"/><stop offset="1" stop-color="#E95CE9"/></linearGradient></defs></svg><svg viewBox="0 0 13 12" id="accordion" xmlns="http://www.w3.org/2000/svg"><path d="M6.017 7.688l-3-3 .537-.538 2.463 2.475 2.462-2.462.538.537-3 2.988z"/></svg><svg viewBox="0 0 18 18" id="arlicle-link" xmlns="http://www.w3.org/2000/svg"><g clip-path="url(#cclip0_50_1972)"><path d="M10.55 2.75l-.647.732 5.69 5.029H.666v.976h14.925l-5.689 5.03.647.73 6.783-5.995v-.506L10.55 2.75z"/></g><defs><clipPath id="cclip0_50_1972"><path transform="translate(.667 .666)" d="M0 0h16.667v16.667H0z"/></clipPath></defs></svg><svg viewBox="0 0 12 12" id="menu-more" xmlns="http://www.w3.org/2000/svg"><path d="M6 7.688l-3-3 .538-.538L6 6.625l2.463-2.462L9 4.7 6 7.688z"/></svg><svg viewBox="0 0 17 17" id="message-btn" xmlns="http://www.w3.org/2000/svg"><path d="M14.957 2.388a1.289 1.289 0 00-1.287-.336L2.939 5.173a1.28 1.28 0 00-.923 1.014c-.094.5.236 1.136.669 1.402L6.04 9.65a.87.87 0 001.073-.129l3.842-3.866a.49.49 0 01.707 0 .509.509 0 010 .712l-3.849 3.866a.882.882 0 00-.128 1.08l2.05 3.389c.24.402.653.63 1.107.63.053 0 .113 0 .167-.006a1.3 1.3 0 001.087-.927l3.181-10.717a1.31 1.31 0 00-.32-1.295z"/></svg><svg viewBox="0 0 24 24" id="message-subscribe" xmlns="http://www.w3.org/2000/svg"><path fill-rule="evenodd" clip-rule="evenodd" d="M16.659 2c3.33 0 5.84 2.717 5.84 6.32v6.868c0 1.844-.651 3.51-1.836 4.692-1.063 1.059-2.442 1.62-3.988 1.62H6.822c-1.543 0-2.921-.56-3.985-1.62C1.652 18.698 1 17.032 1 15.188V8.32C1 4.717 3.51 2 6.84 2h9.819zm0 1.5H6.84C4.326 3.5 2.5 5.527 2.5 8.32v6.868c0 1.443.496 2.732 1.396 3.629C4.672 19.592 5.685 20 6.825 20h9.834c.002-.002.01 0 .016 0 1.14 0 2.153-.408 2.929-1.183.9-.897 1.396-2.186 1.396-3.629V8.32c0-2.793-1.826-4.82-4.341-4.82zm1.576 4.629a.75.75 0 01-.11 1.055l-4.443 3.612a3.042 3.042 0 01-3.799.006L5.398 9.186a.751.751 0 01.94-1.168l4.482 3.612a1.544 1.544 0 001.923-.004l4.436-3.606a.75.75 0 011.056.109z"/></svg></svg>